<svg width="19" height="19" viewBox="0 0 19 19" fill="none" xmlns="http://www.w3.org/2000/svg">
<path fill-rule="evenodd" clip-rule="evenodd" d="M17.9444 13.1944C16.6778 13.1944 15.4111 12.9833 14.1444 12.5611C13.8278 12.4556 13.4056 12.5611 13.0889 12.7722L10.7667 15.0944C7.81111 13.6167 5.38333 11.0833 3.8 8.12778L6.12222 5.80556C6.43889 5.48889 6.54444 5.06667 6.33333 4.75C6.01667 3.58889 5.80556 2.32222 5.80556 1.05556C5.80556 0.422222 5.38333 0 4.75 0H1.05556C0.422222 0 0 0.422222 0 1.05556C0 10.9778 8.02222 19 17.9444 19C18.5778 19 19 18.5778 19 17.9444V14.25C19 13.6167 18.5778 13.1944 17.9444 13.1944ZM16.8889 9.5H19C19 4.22222 14.7778 0 9.5 0V2.11111C13.6167 2.11111 16.8889 5.38333 16.8889 9.5ZM12.6667 9.5H14.7778C14.7778 6.54444 12.4556 4.22222 9.5 4.22222V6.33333C11.2944 6.33333 12.6667 7.70556 12.6667 9.5Z" fill="white"/>
</svg>
