<svg width="83" height="83" viewBox="0 0 83 83" fill="none" xmlns="http://www.w3.org/2000/svg">
<path d="M17.1626 0.376381C16.6165 0.810036 16.5844 1.6131 17.1144 2.07888C17.3071 2.25555 18.3511 2.898 19.4433 3.49227C20.9048 4.27927 21.5152 4.53625 21.8043 4.47201C22.6716 4.24715 23.0731 3.3156 22.5913 2.65708C22.2379 2.17524 18.4314 0.0390947 17.9335 0.0390947C17.7408 0.0390947 17.4035 0.183646 17.1626 0.376381Z" fill="#194E1B"/>
<path d="M38.9095 0.264884C34.6051 1.16432 31.0716 4.52112 29.9955 8.69706C29.0318 12.5357 30.1079 16.6795 32.8223 19.5705L33.6254 20.4057L33.3202 21.0321C32.3886 22.847 33.0311 25.1599 34.7336 26.1557C35.1672 26.4126 35.1672 26.4287 34.9263 27.0872C34.7978 27.4887 34.7336 28.067 34.7818 28.5649C34.9906 30.701 36.6449 32.1465 38.8774 32.1626H39.8732V33.6884V35.2142H26.0766C16.4237 35.2142 12.1354 35.2624 11.782 35.3909C11.509 35.4873 11.2038 35.6961 11.1235 35.8567C11.0271 36.0334 10.9629 37.5913 10.9629 39.3741C10.9629 42.3936 10.979 42.6185 11.2841 42.9236C11.766 43.4055 12.6172 43.3573 13.0348 42.8273C13.34 42.4418 13.3721 42.1848 13.3721 40.0969V37.784H26.6066H39.8571L39.9053 40.2093C39.9535 42.5382 39.9696 42.6506 40.339 42.9397C40.8208 43.3252 41.4954 43.3252 41.9772 42.9397C42.3466 42.6506 42.3627 42.5382 42.4109 40.2093L42.4591 37.784H50.6021C56.8178 37.784 58.8416 37.7358 59.1467 37.5752C59.6286 37.3343 59.8695 36.7079 59.7249 36.1137C59.5001 35.2303 59.2913 35.2142 50.4736 35.2142H42.443V33.7045V32.2108L43.6958 32.1305C44.3864 32.0823 45.1574 31.9377 45.4304 31.7932C46.1532 31.4238 46.9402 30.5886 47.2774 29.8337C47.6147 29.1109 47.679 27.6172 47.4059 26.9105C47.2614 26.5251 47.2935 26.4287 47.695 26.1396C49.4297 24.9029 50.0079 22.6222 49.0281 20.9679L48.6908 20.4057L49.7348 19.2975C52.3689 16.5189 53.3807 12.0217 52.2404 8.31158C51.614 6.30392 50.8591 5.06721 49.269 3.4932C47.695 1.90313 46.4583 1.14825 44.4507 0.521865C43.0212 0.0721491 40.4032 -0.0402799 38.9095 0.264884ZM43.0051 2.69014C46.5547 3.44502 49.269 6.15937 50.0882 9.78922C50.7306 12.7284 49.783 15.8443 47.5505 18.0929C46.6511 18.9763 46.5707 19.0245 46.0086 18.9281C45.6874 18.8799 44.7398 18.8317 43.9367 18.8317H42.443V17.4826C42.443 16.2137 42.4591 16.1334 42.8124 16.0371C43.4067 15.8925 44.6273 14.72 44.9807 13.9652C45.2858 13.3548 45.3983 12.6803 45.3501 11.8772C45.318 11.4435 44.7398 10.9617 44.2258 10.9617C43.5352 10.9617 43.0855 11.4114 42.973 12.2145C42.9088 12.6481 42.716 13.0818 42.443 13.3709C41.4954 14.3827 39.6805 13.7885 39.4556 12.3911C39.2307 11.0259 38.1225 10.4959 37.3034 11.3632C36.9822 11.7005 36.95 11.8611 37.0303 12.6321C37.1749 14.0776 37.9458 15.2179 39.2468 15.8764L40.0338 16.2619V17.5468V18.8317H38.4759C37.6086 18.8317 36.6449 18.8799 36.3397 18.9281C35.8258 19.0084 35.6973 18.9442 34.9103 18.1571C33.0632 16.3422 32.1317 14.174 32.1317 11.6684C32.1317 10.7529 32.2441 9.82134 32.4047 9.24314C33.7699 4.53718 38.3313 1.7104 43.0051 2.69014ZM46.5707 21.787C47.1971 22.3331 47.1971 23.361 46.5707 23.9071L46.121 24.2926H41.1742H36.2273L35.7936 23.891C35.2154 23.361 35.1994 22.3652 35.7776 21.8031L36.163 21.4015H41.142H46.121L46.5707 21.787ZM44.29 26.9266C45.2377 27.3281 45.4786 28.4203 44.7879 29.2234L44.4025 29.6731L41.4793 29.7213C38.2349 29.7855 37.7692 29.6891 37.3676 28.9182C37.0625 28.34 37.191 27.6654 37.6728 27.2318C38.2028 26.7499 38.2992 26.7339 41.126 26.7178C43.0373 26.7017 43.8885 26.766 44.29 26.9266Z" fill="#194E1B"/>
<path d="M62.1023 1.1472C59.661 2.49635 59.6289 2.51241 59.6289 3.25123C59.6289 3.73307 59.7253 3.94187 60.0465 4.19885C60.2874 4.39158 60.5926 4.53613 60.7371 4.53613C60.8817 4.53613 61.9739 4.00611 63.1624 3.36366C65.5716 2.04663 65.9249 1.67723 65.5716 0.825978C65.1219 -0.250128 64.5276 -0.201944 62.1023 1.1472Z" fill="#194E1B"/>
<path d="M13.6936 9.72436C13.4848 9.83678 13.1957 10.1259 13.0511 10.3668C12.8423 10.7523 12.8423 10.8486 13.0511 11.2341C13.1957 11.475 13.4848 11.7641 13.6936 11.8766C14.2236 12.1496 21.5315 12.1657 22.1097 11.9087C22.6879 11.6356 22.977 10.8647 22.6718 10.3347C22.2382 9.5798 21.917 9.51556 17.8695 9.51556C15.1712 9.51556 13.9827 9.5798 13.6936 9.72436Z" fill="#194E1B"/>
<path d="M60.4317 9.62866C59.5805 9.93382 59.3235 11.1224 59.966 11.7006C60.2711 11.9736 60.6405 12.0057 64.3025 12.0539C67.6754 12.1021 68.366 12.07 68.7675 11.8451C69.2976 11.5721 69.5224 11.0421 69.3618 10.3835C69.1691 9.62866 68.5427 9.51623 64.4149 9.53229C62.3591 9.53229 60.5602 9.58047 60.4317 9.62866Z" fill="#194E1B"/>
<path d="M20.6641 17.482C17.0182 19.4093 16.7451 19.602 16.7451 20.373C16.7451 20.9512 17.3394 21.5615 17.9176 21.5615C18.2067 21.5615 20.5998 20.3409 21.9329 19.5217C22.7199 19.0238 22.9608 18.5259 22.7039 17.8996C22.5272 17.482 21.965 17.0644 21.5796 17.0644C21.5153 17.0644 21.0977 17.2571 20.6641 17.482Z" fill="#194E1B"/>
<path d="M60.432 17.1768C59.9019 17.3695 59.6289 17.7711 59.6289 18.3493C59.6289 18.7187 59.7413 19.0399 59.918 19.1845C60.448 19.6342 64.11 21.5615 64.4473 21.5615C64.9773 21.5615 65.3467 21.3045 65.5716 20.7745C65.9249 19.9233 65.5716 19.5539 63.1624 18.2529C60.9781 17.0644 60.8656 17.0162 60.432 17.1768Z" fill="#194E1B"/>
<path d="M63.242 35.3267C62.3426 35.5515 62.0214 36.7882 62.6959 37.3986C63.0011 37.6716 63.3545 37.7037 65.9885 37.7519L68.9438 37.8001V40.0969C68.9438 42.1848 68.9759 42.4418 69.2811 42.8273C69.6987 43.3573 70.5499 43.4055 71.0317 42.9236C71.3369 42.6185 71.353 42.3936 71.353 39.3741C71.353 37.5913 71.2887 36.0333 71.1924 35.8567C70.9033 35.3267 70.1323 35.2142 66.7916 35.2303C65.0088 35.2463 63.4187 35.2945 63.242 35.3267Z" fill="#194E1B"/>
<path d="M10.8665 44.8667C6.81902 45.2522 3.09281 47.8541 1.32607 51.5161C0.201776 53.861 0.153592 54.118 0.0893469 59.9965C0.0251018 64.4454 0.0572244 65.4733 0.282082 66.5816C0.699676 68.6374 1.75972 70.8218 2.94825 72.0745L3.39797 72.5564L2.59491 73.5843C1.18151 75.3992 0.314205 77.6317 0.0893469 79.9446C-0.0391433 81.2616 0.105408 81.7274 0.683614 82.0325C1.10121 82.2574 2.53066 82.2734 12.3441 82.2413L23.5228 82.1931L23.9243 81.7274C24.2937 81.2937 24.3098 81.1813 24.2134 80.2015C23.9564 77.6157 23.0249 75.2225 21.6275 73.504L20.8887 72.6046L21.2902 72.187C22.0612 71.3518 22.7357 70.1632 22.7357 69.6975C22.7357 69.3762 22.5912 69.0871 22.3021 68.8302C21.499 68.1395 21.1939 68.3162 19.4753 70.4845C17.3231 73.2149 13.356 74.4998 9.8546 73.6164C6.5781 72.7973 4.10467 70.5005 2.99644 67.2561C2.57885 66.0516 2.54672 65.7624 2.48248 62.6466L2.41823 59.3219L3.07674 59.0007C3.89587 58.5831 5.69473 56.8966 6.16051 56.1257C6.36931 55.7884 6.54598 55.4993 6.56204 55.4832C6.5781 55.4511 6.91539 55.6278 7.30086 55.9008C10.1116 57.8282 15.1066 59.2737 19.9893 59.5628L21.7078 59.6752L21.756 62.5502C21.8042 65.3609 21.8203 65.4412 22.1897 65.7464C22.6715 66.1319 23.3461 66.1319 23.8279 65.7464L24.2134 65.4412V60.398C24.2134 54.5999 24.101 53.8129 22.9285 51.4679C20.6478 46.9386 15.9579 44.3688 10.8665 44.8667ZM14.416 47.5008C14.946 47.6293 15.9258 48.0147 16.5843 48.336C19.4914 49.7494 21.7239 53.2347 21.7239 56.3345V57.266L20.1659 57.1536C16.6967 56.8966 13.115 56.0614 10.5774 54.905C9.29246 54.3108 7.70239 53.2989 7.18843 52.7207C6.11233 51.5322 4.84349 51.8213 4.61863 53.331C4.55438 53.7486 4.42589 54.2305 4.34559 54.4071C4.07254 54.9371 3.09281 56.0775 2.77158 56.2542C2.41823 56.4469 2.43429 56.3666 2.8037 54.5677C3.46222 51.3715 6.4978 48.3038 9.80642 47.5168C11.0431 47.2117 13.2596 47.2117 14.416 47.5008ZM6.19263 74.7728C9.64581 76.8608 14.8015 76.8287 18.2386 74.7086L19.0417 74.2107L19.5877 74.8371C20.1981 75.5438 21.3224 77.7602 21.483 78.5794C21.5472 78.8845 21.6275 79.27 21.6596 79.4145C21.74 79.6876 21.2099 79.7036 12.1835 79.7036C4.10467 79.7036 2.61097 79.6715 2.61097 79.4788C2.61097 79.0291 3.3016 77.0375 3.68707 76.3308C4.07254 75.6723 5.13259 74.2428 5.24502 74.2428C5.27714 74.2428 5.71079 74.4837 6.19263 74.7728Z" fill="#194E1B"/>
<path d="M39.8739 44.8669C37.1435 45.14 34.654 46.3446 32.6303 48.3683C31.249 49.7656 30.2854 51.2754 29.6429 53.1224L29.1932 54.4073L29.145 60.0127C29.0968 64.7829 29.1289 65.7948 29.3538 66.8388C29.6911 68.3646 30.5905 70.308 31.5863 71.6411L32.3412 72.653L31.6184 73.5685C30.1729 75.4476 29.3217 77.648 29.1611 79.9448C29.0808 81.2457 29.1129 81.4385 29.402 81.7918L29.7232 82.1934H41.1588H52.5945L52.9157 81.7918C53.2048 81.4385 53.2369 81.2457 53.1566 79.9448C52.996 77.6641 52.1608 75.4958 50.6832 73.5685L49.9765 72.653L50.7314 71.6411C51.7272 70.308 52.6266 68.3646 52.9639 66.8388C53.1887 65.7948 53.2209 64.7829 53.1727 60.0127L53.1245 54.4073L52.6748 53.1224C50.7474 47.6134 45.5918 44.3048 39.8739 44.8669ZM44.355 47.7419C45.8005 48.2559 47.6155 49.5247 48.531 50.6651C49.9122 52.3676 50.7795 54.6483 50.7956 56.5596V57.2663L49.318 57.1538C44.6441 56.8165 39.9703 55.4513 37.3523 53.6525C36.9829 53.3955 36.3405 52.9136 35.9389 52.5603C35.5213 52.2069 35.0556 51.9178 34.8789 51.9178C34.4131 51.9178 33.61 52.7691 33.61 53.2831C33.61 54.1343 32.7106 55.628 31.8594 56.1901L31.4739 56.4471L31.5863 55.5959C32.0842 51.9178 34.8146 48.7217 38.4284 47.6295C40.0346 47.1316 42.781 47.1958 44.355 47.7419ZM38.3481 56.9771C41.2873 58.4066 45.0778 59.3221 49.0449 59.563L50.8277 59.6754L50.7635 62.9841C50.6992 66.0518 50.6671 66.373 50.2816 67.3688C49.6713 68.9749 48.9164 70.1474 47.744 71.2396C45.3027 73.5363 42.0261 74.4197 38.846 73.6006C37.0311 73.1348 35.7944 72.4281 34.397 71.0308C33.4976 70.1474 33.0318 69.5049 32.5982 68.6216C31.6506 66.6942 31.5221 65.9072 31.5221 62.4219V59.3221L32.4697 58.7439C33.4655 58.1496 34.8949 56.7202 35.3125 55.901L35.5535 55.4353L36.0674 55.7726C36.3565 55.9653 37.3844 56.5114 38.3481 56.9771ZM37.7057 75.8492C38.4605 76.0901 39.4242 76.2346 40.677 76.2828C42.9738 76.3952 44.5638 76.0419 46.6679 74.9818L48.0652 74.2751L48.6434 74.9497C49.3822 75.7849 50.4423 78.0014 50.5708 78.965L50.6832 79.7039H41.1588H31.6345L31.7469 78.965C31.8754 78.0014 32.9355 75.7849 33.6743 74.9337L34.2686 74.2591L35.425 74.8855C36.0674 75.2228 37.0953 75.6564 37.7057 75.8492Z" fill="#194E1B"/>
<path d="M35.6174 60.0285C35.2319 60.3979 35.2158 60.5264 35.2158 62.1968C35.2158 63.8672 35.2319 63.9957 35.6174 64.3651C35.8261 64.5899 36.1956 64.7666 36.4204 64.7666C36.6453 64.7666 37.0147 64.5899 37.2235 64.3651C37.609 63.9957 37.625 63.8672 37.625 62.1968C37.625 60.5264 37.609 60.3979 37.2235 60.0285C37.0147 59.8037 36.6453 59.627 36.4204 59.627C36.1956 59.627 35.8261 59.8037 35.6174 60.0285Z" fill="#194E1B"/>
<path d="M45.0929 60.0285C44.7075 60.3979 44.6914 60.5264 44.6914 62.1968C44.6914 63.8672 44.7075 63.9957 45.0929 64.3651C45.3017 64.5899 45.6711 64.7666 45.896 64.7666C46.1209 64.7666 46.4903 64.5899 46.6991 64.3651C47.0845 63.9957 47.1006 63.8672 47.1006 62.1968C47.1006 60.5264 47.0845 60.3979 46.6991 60.0285C46.4903 59.8037 46.1209 59.627 45.896 59.627C45.6711 59.627 45.3017 59.8037 45.0929 60.0285Z" fill="#194E1B"/>
<path d="M37.399 66.3885C37.0939 66.6295 36.9814 66.8704 36.9814 67.2719C36.9814 67.9625 37.6239 68.6211 38.9088 69.2474C39.6476 69.6008 40.017 69.665 41.1574 69.665C42.2977 69.665 42.6671 69.6008 43.406 69.2474C44.6909 68.6371 45.3333 67.9786 45.3333 67.288C45.3333 66.8704 45.2209 66.6295 44.9157 66.3885C44.3375 65.9228 43.8717 65.9709 43.165 66.5331C42.6029 66.9828 41.7195 67.3362 41.1574 67.3362C40.5952 67.3362 39.7119 66.9828 39.1497 66.5331C38.443 65.9709 37.9772 65.9228 37.399 66.3885Z" fill="#194E1B"/>
<path d="M68.8478 44.8666C64.8967 45.2521 61.2508 47.7898 59.4038 51.4678C58.1992 53.8288 58.1028 54.5516 58.1028 60.6709C58.1028 65.1841 58.151 66.1317 58.3919 67.0633C58.7774 68.6052 59.5965 70.2756 60.5602 71.5605L61.3954 72.6526L60.6726 73.5199C59.2913 75.2224 58.3598 77.6316 58.1028 80.2014C58.0064 81.1812 58.0225 81.2936 58.3919 81.7272L58.7934 82.193L69.94 82.2412C77.6815 82.2733 81.1989 82.2251 81.488 82.1127C82.1626 81.8236 82.3393 81.3257 82.2108 79.9926C81.9859 77.5995 81.1026 75.3188 79.7855 73.6805C78.9985 72.7169 78.9182 72.4759 79.3358 72.1387C79.7695 71.7853 80.9259 69.9061 81.3595 68.8622C82.1465 66.9348 82.1947 66.5012 82.1947 60.5103C82.1947 55.1137 82.1787 54.8407 81.8253 53.6039C80.171 47.8861 74.8226 44.2884 68.8478 44.8666ZM72.4455 47.5007C74.7102 48.0307 77.2157 49.8456 78.3882 51.8051C79.127 53.0257 79.657 54.664 79.8016 56.0774L79.914 57.2659L78.2437 57.1535C72.7989 56.768 67.9163 55.1458 65.3304 52.833C64.5916 52.1745 64.2864 52.0139 63.8367 52.0139C63.1782 52.0139 62.6803 52.5118 62.6803 53.1864C62.6803 53.8449 61.9736 55.1458 61.2508 55.8525L60.5923 56.4789V55.9489C60.5923 55.6598 60.7047 54.9692 60.8493 54.4231C61.7005 51.1466 64.4631 48.4001 67.8199 47.5167C68.9763 47.2116 71.1767 47.2116 72.4455 47.5007ZM68.0126 57.3141C71.1606 58.6472 75.8345 59.6269 79.0788 59.6269H79.898L79.8337 62.791C79.7695 65.7302 79.7374 66.0675 79.3358 67.2239C78.1794 70.5647 75.5132 72.9899 72.2367 73.6805C69.956 74.1624 68.1411 73.9215 65.9728 72.8775C63.5476 71.705 61.7969 69.6973 60.9938 67.1436C60.6244 65.9551 60.5923 65.6499 60.5923 62.5501V59.2254L61.3472 58.8239C62.2466 58.342 63.5797 57.0732 64.174 56.1416L64.6076 55.4671L65.6837 56.1256C66.2941 56.495 67.322 57.025 68.0126 57.3141ZM64.0776 74.6924C66.1977 75.9291 68.2214 76.411 70.7752 76.2825C72.8471 76.1861 74.2444 75.8006 75.963 74.8691L77.1194 74.2427L77.6655 74.9333C77.9706 75.3027 78.4043 75.9291 78.6291 76.3307C79.0146 77.0374 79.7052 79.029 79.7052 79.4787C79.7052 79.6714 78.2115 79.7035 70.1327 79.7035C61.1063 79.7035 60.5763 79.6875 60.6566 79.4144C60.6887 79.2699 60.785 78.8844 60.8332 78.5792C61.026 77.6798 61.829 76.0255 62.5357 75.0939C62.9051 74.6282 63.2264 74.2427 63.2585 74.2427C63.2906 74.2427 63.66 74.4515 64.0776 74.6924Z" fill="#194E1B"/>
<path d="M64.7037 59.9644C64.3022 60.2856 64.2861 60.3338 64.2861 62.1969C64.2861 64.06 64.3022 64.1082 64.7037 64.4294C65.2337 64.847 65.7477 64.8631 66.2295 64.4616C66.5829 64.1725 66.615 64.0118 66.6632 62.5181C66.7274 60.7032 66.5668 60.0929 65.9565 59.8038C65.3944 59.5468 65.1856 59.5789 64.7037 59.9644Z" fill="#194E1B"/>
<path d="M74.1803 59.9644C73.7788 60.2856 73.7627 60.3338 73.7627 62.1969C73.7627 64.06 73.7788 64.1082 74.1803 64.4294C74.7103 64.847 75.2243 64.8631 75.7061 64.4616C76.0595 64.1725 76.0916 64.0118 76.1398 62.5181C76.204 60.7032 76.0434 60.0929 75.4331 59.8038C74.8709 59.5468 74.6621 59.5789 74.1803 59.9644Z" fill="#194E1B"/>
<path d="M66.4389 66.4207C65.8768 66.9025 65.8447 67.6574 66.3586 68.2035C66.5674 68.4123 67.1617 68.8299 67.7078 69.119C68.6233 69.6169 68.816 69.665 70.1491 69.665C71.4019 69.665 71.707 69.6008 72.5101 69.2153C73.5701 68.7014 74.4053 67.818 74.4053 67.2398C74.4053 66.7419 73.7308 66.0513 73.2489 66.0513C73.0401 66.0513 72.5262 66.2922 72.1086 66.5973C70.7755 67.545 69.7476 67.545 68.286 66.6134C67.2741 65.9549 67.0171 65.9228 66.4389 66.4207Z" fill="#194E1B"/>
<path d="M6.83489 59.8198C6.27274 60.0929 6.11213 60.7514 6.17638 62.5181C6.22456 64.0118 6.25668 64.1725 6.61003 64.4616C7.09187 64.8631 7.60583 64.847 8.13585 64.4294C8.53738 64.1082 8.55345 64.06 8.55345 62.1969C8.55345 60.3338 8.53738 60.2856 8.13585 59.9644C7.67008 59.595 7.36491 59.5629 6.83489 59.8198Z" fill="#194E1B"/>
<path d="M16.3115 59.8198C15.7493 60.0929 15.5887 60.7514 15.6529 62.5181C15.7011 64.0118 15.7332 64.1725 16.0866 64.4616C16.5684 64.8631 17.0824 64.847 17.6124 64.4294C18.0139 64.1082 18.03 64.06 18.03 62.1969C18.03 60.3338 18.0139 60.2856 17.6124 59.9644C17.1466 59.595 16.8415 59.5629 16.3115 59.8198Z" fill="#194E1B"/>
<path d="M8.31266 66.4528C8.08781 66.6616 7.91113 67.0149 7.91113 67.2398C7.91113 67.818 8.74632 68.7014 9.80636 69.2153C10.5934 69.6008 10.9146 69.665 12.0871 69.665C13.3077 69.665 13.5808 69.6008 14.5123 69.1511C15.0745 68.862 15.7169 68.4444 15.9418 68.2356C16.4718 67.6574 16.4397 66.9186 15.8775 66.4207C15.2993 65.9228 15.0423 65.9549 14.0305 66.6134C12.5689 67.545 11.541 67.545 10.2079 66.5973C9.2924 65.9549 8.84269 65.9067 8.31266 66.4528Z" fill="#194E1B"/>
</svg>
