<svg width="82" height="82" viewBox="0 0 82 82" fill="none" xmlns="http://www.w3.org/2000/svg">
<path d="M38.3703 0.70041C35.3086 1.47372 33.2885 4.59855 33.8093 7.73915C34.0934 9.41204 34.7878 10.6115 36.366 12.1108C37.739 13.4207 39.8696 15.0935 42.0948 16.6402C43.7835 17.808 43.9571 17.7923 46.1034 16.3245C51.927 12.3475 53.5841 10.5641 54.0417 7.7865C54.6415 4.21978 52.0374 0.905575 48.4865 0.731974C47.0188 0.653064 46.0719 0.937138 44.8567 1.78936L44.0044 2.38908L43.531 2.01031C43.2785 1.78936 42.6156 1.39482 42.079 1.1423C40.9743 0.605718 39.4592 0.432117 38.3703 0.70041ZM40.7533 3.96727C41.0848 4.10931 41.7792 4.69324 42.3315 5.26139C43.2153 6.19252 43.3731 6.303 43.9255 6.303C44.4779 6.303 44.6673 6.17674 45.5511 5.3403C46.7505 4.18822 47.3344 3.8568 48.2182 3.8568C49.4334 3.8568 50.5381 4.78793 50.9011 6.14518C51.2641 7.42352 50.7118 8.62294 49.1178 10.0907C47.9341 11.1638 44.1465 13.9572 43.8624 13.9572C43.6257 13.9572 40.0589 11.2427 38.7648 10.0749C38.1335 9.50673 37.4865 8.76498 37.3129 8.43356C36.4291 6.71333 36.9499 4.86684 38.5597 4.01462C39.2698 3.63585 40.0116 3.62007 40.7533 3.96727Z" fill="#194E1B"/>
<path d="M73.216 7.6765C73.0424 7.77119 72.348 8.38669 71.6852 9.03375L70.4542 10.2332L70.0123 9.80706C69.1916 9.01797 68.2289 8.97062 67.5503 9.64925C66.9664 10.2332 66.9822 11.0854 67.6134 11.7956C67.8817 12.0954 68.0869 12.4111 68.0869 12.49C68.0869 12.5689 67.8344 12.8688 67.5345 13.1686L66.9822 13.7052L66.4298 13.1686C65.9721 12.7267 65.7354 12.6162 65.2304 12.6162C64.6938 12.6162 64.5044 12.7109 64.1256 13.1371C63.4786 13.863 63.5101 14.5574 64.2045 15.3465L64.7569 15.9462L58.4126 22.2748L52.0682 28.6191L50.1744 27.6722C47.6019 26.4097 45.7081 25.9204 43.3093 25.9046C41.1945 25.9046 40.0266 26.1572 38.2748 27.0094C36.8544 27.7196 34.8028 29.5818 33.8085 31.1285C33.414 31.7124 32.688 32.8171 32.1672 33.6062C29.6737 37.4097 25.7282 40.14 21.0567 41.3236C18.4211 42.0022 17.9319 42.1758 16.1801 43.0754C12.3767 45.0481 9.55169 48.4413 8.33648 52.5446C7.78411 54.4384 7.64207 57.6579 8.02084 59.8832C9.69372 69.4944 18.6421 78.7268 28.4742 80.9678C30.1156 81.3466 34.1399 81.3466 35.6077 80.9836C38.6062 80.2419 41.1313 78.7899 43.2303 76.5804C45.6765 74.0396 46.7655 71.8932 47.8071 67.5847C48.0281 66.6536 48.1701 65.7225 48.1227 65.5173C47.9491 64.8545 47.3179 64.381 46.5919 64.381C45.5819 64.381 45.1715 64.9807 44.6665 67.1586C44.1457 69.3681 43.5144 70.9463 42.5833 72.3825C40.8157 75.1127 38.3222 76.9592 35.2447 77.8114C33.7138 78.2376 30.4154 78.206 28.5847 77.7483C20.4886 75.7282 12.6923 67.6163 11.193 59.6464C10.7985 57.5474 10.9247 54.7067 11.4929 53.018C12.5976 49.7669 14.8702 47.1945 17.9792 45.6952C19.3996 45.0166 20.1571 44.7641 22.3193 44.259C26.4699 43.2963 30.8573 40.4398 33.6981 36.8731C34.2031 36.2418 35.0553 35.0108 35.6077 34.1113C38.4169 29.5187 41.7784 28.0826 46.3867 29.5345C47.4441 29.8659 49.3537 30.7024 49.622 30.9549C49.6536 30.9864 46.7813 33.9219 43.2303 37.4728L36.7597 43.9434H35.8917C33.9821 43.9434 31.9463 44.8114 30.3681 46.2949C26.7224 49.7038 26.6751 55.4484 30.2734 58.9362C34.2662 62.8502 40.721 62.0768 43.7827 57.3265C44.5245 56.1902 44.9821 54.8329 45.1242 53.3021L45.2347 52.1974L51.6579 45.7741L58.0812 39.3509L58.6651 40.5818C60.2591 43.9907 60.3064 47.589 58.7598 50.0037C58.0496 51.14 56.7713 52.3236 55.272 53.2232C53.5991 54.2332 53.3308 54.5173 53.3308 55.338C53.3308 55.8588 53.4255 56.0481 53.8516 56.4269C54.1514 56.6952 54.546 56.8846 54.7985 56.8846C55.4298 56.8846 58.1916 55.2117 59.4384 54.0596C60.7641 52.8444 61.8057 51.282 62.437 49.5933C62.8631 48.4728 62.942 48.0151 63.0051 46.358C63.1156 43.4384 62.5948 41.2289 61.1113 38.3724L60.4169 37.0151L66.7612 30.6708L73.1213 24.3107L73.8315 24.9735C74.8574 25.9204 75.9147 25.8573 76.5145 24.8157C76.909 24.1528 76.7354 23.49 75.9779 22.7167L75.3466 22.0696L75.9779 21.4541L76.5934 20.8544L77.3036 21.5015C78.1873 22.3221 79.008 22.4168 79.6551 21.7698C80.381 21.028 80.2863 20.0495 79.371 19.1658L78.8186 18.6292L80.0654 17.3508C81.3595 16.0409 81.612 15.5359 81.4226 14.7942C81.2964 14.2576 75.2046 8.07105 74.4628 7.72385C73.8631 7.43977 73.6421 7.43977 73.216 7.6765ZM75.7411 13.3264L77.6192 15.2203L77.0826 15.7726L76.546 16.325L74.6048 14.3996L72.6637 12.4742L73.1687 11.9534C73.4528 11.6693 73.7053 11.4326 73.7684 11.4326C73.8157 11.4326 74.6995 12.2848 75.7411 13.3264ZM72.4269 16.6406L74.305 18.5345L73.6895 19.1658L73.074 19.797L71.1328 17.8716L69.1916 15.9462L69.7756 15.3465C70.0912 15.0151 70.4068 14.7468 70.4542 14.7468C70.5015 14.7468 71.3853 15.599 72.4269 16.6406ZM68.9549 20.1127L70.8487 22.0065L70.249 22.5904L69.6651 23.1901L67.7397 21.2648L65.8143 19.3236L66.3509 18.7712C66.6507 18.4713 66.919 18.2188 66.9822 18.2188C67.0295 18.2188 67.9133 19.0711 68.9549 20.1127ZM65.546 23.5374L67.4714 25.3838L55.8401 37.0151L44.2088 48.6464L43.6249 47.7626C43.0094 46.7999 41.8573 45.6952 40.9104 45.1428L40.3107 44.8114L51.8788 33.2432C58.2232 26.8989 63.4628 21.6909 63.5101 21.6909C63.5575 21.6909 64.4728 22.5273 65.546 23.5374ZM38.8272 47.6206C40.4369 48.4413 41.3681 49.6091 41.8258 51.3451C42.4728 53.9018 41.1313 56.6479 38.6851 57.7684C37.8487 58.1629 37.5015 58.2261 36.3652 58.2261C35.1658 58.2261 34.8975 58.1787 33.9663 57.7052C31.6937 56.5847 30.3838 54.1227 30.8257 51.787C31.2203 49.5933 32.688 47.9362 34.787 47.2418C35.008 47.1629 35.8286 47.1314 36.6019 47.1471C37.7698 47.1945 38.1643 47.2734 38.8272 47.6206Z" fill="#194E1B"/>
<path d="M19.3211 12.3956C10.7989 15.2679 8.95239 15.9465 8.63675 16.2779L8.27376 16.6251V22.8748V29.1402L7.75296 28.9982C7.48467 28.935 6.64823 28.8719 5.90647 28.8719C4.8333 28.8719 4.42297 28.9508 3.83904 29.2349C2.67118 29.803 1.8663 30.6079 1.29815 31.76C0.82469 32.7069 0.777344 32.9437 0.777344 34.1589C0.793126 35.3741 0.840472 35.595 1.32971 36.4946C2.3871 38.4831 4.05999 39.43 6.30102 39.3353C7.80031 39.2722 8.79457 38.8619 9.80461 37.8518C11.3828 36.2579 11.4302 35.9422 11.4302 26.3626V18.4243L15.8964 16.8934C18.3426 16.057 20.3943 15.3784 20.4732 15.3784C20.5363 15.3784 20.5837 17.5563 20.5837 20.2076C20.5837 24.6108 20.5679 25.0369 20.3312 24.9422C18.8792 24.3898 17.4589 24.4688 16.0227 25.1789C14.1762 26.0943 13.103 27.8461 13.103 29.9135C13.103 30.9551 13.1819 31.2708 13.6081 32.1546C14.2078 33.354 15.06 34.1904 16.3068 34.7744C17.0327 35.1058 17.4115 35.1847 18.4531 35.1847C19.5263 35.1847 19.8577 35.1058 20.6468 34.727C21.7989 34.1589 22.7142 33.2435 23.2508 32.1072L23.6612 31.2392L23.7085 21.8805L23.7558 12.5218L23.2824 12.0642C22.6353 11.4171 22.083 11.4487 19.3211 12.3956ZM19.5736 28.0828C21.2939 29.2033 20.6468 31.7916 18.5794 32.0441C17.3957 32.2019 16.2752 31.1603 16.2752 29.8977C16.2752 28.1933 18.169 27.1517 19.5736 28.0828ZM7.48467 32.5018C8.49471 33.4645 8.44737 34.7901 7.40576 35.7213C6.06429 36.9049 3.85482 35.8633 3.85482 34.0484C3.85482 33.4329 4.3125 32.6438 4.88065 32.2493C5.59084 31.7758 6.85339 31.902 7.48467 32.5018Z" fill="#194E1B"/>
<path d="M67.5826 54.4703C67.3616 54.6124 67.0933 54.8964 66.9986 55.1016C66.8882 55.3541 66.825 57.5636 66.825 61.5722C66.825 67.301 66.8093 67.6482 66.5568 67.5378C65.9413 67.2695 63.7002 67.2537 62.9743 67.5062C60.0072 68.5163 58.5395 71.862 59.8021 74.7028C60.3702 75.9495 61.5854 77.0858 62.848 77.5593C63.574 77.8434 63.9843 77.8907 64.947 77.8434C67.0144 77.7171 68.5768 76.6755 69.5395 74.7501L69.9025 74.0084L69.9499 65.9911C69.9657 61.588 70.013 57.9897 70.0288 57.9897C70.0603 57.9897 70.8179 58.2422 71.7174 58.5421C74.0058 59.3154 74.6055 59.268 75.1263 58.2738C75.442 57.6741 75.3157 56.9007 74.8265 56.4589C74.4319 56.0959 69.003 54.202 68.4032 54.202C68.1823 54.202 67.8193 54.3283 67.5826 54.4703ZM65.8308 70.7731C67.6299 71.862 66.7935 74.7186 64.6787 74.7186C63.6371 74.7186 62.6271 73.8979 62.5639 72.9825C62.485 71.9567 62.5797 71.6726 63.1794 71.0729C63.716 70.5206 63.8738 70.4574 64.5524 70.4574C65.0417 70.4574 65.5151 70.5679 65.8308 70.7731Z" fill="#194E1B"/>
<path d="M25.4131 58.3841C24.766 58.7313 24.5451 59.0785 24.5293 59.7887C24.5293 60.3726 24.6398 60.5304 26.5652 62.4716C28.5063 64.4286 28.6484 64.5391 29.2481 64.5391C30.4002 64.5391 31.1577 63.3239 30.6369 62.3138C30.2897 61.651 27.0544 58.5104 26.5336 58.321C25.9655 58.1 25.9655 58.1 25.4131 58.3841Z" fill="#194E1B"/>
<path d="M48.6591 59.0785C47.8069 59.9307 48.1541 61.288 49.3062 61.6352C49.827 61.793 49.9848 61.7772 50.4267 61.5089C50.7424 61.3353 51.0422 60.9881 51.1685 60.6409C51.7524 59.1258 49.8112 57.9264 48.6591 59.0785Z" fill="#194E1B"/>
<path d="M18.5314 60.3721C17.5845 60.7509 17.2058 61.682 17.6319 62.5027C17.7739 62.7552 19.8256 64.9015 22.1928 67.2531C26.0752 71.1196 26.5644 71.5615 27.0221 71.5615C28.1426 71.5615 28.9317 70.6935 28.7266 69.715C28.5845 69.1311 19.9045 60.4353 19.3205 60.309C19.0996 60.2617 18.7524 60.2932 18.5314 60.3721Z" fill="#194E1B"/>
</svg>
