<svg width="52" height="40" viewBox="0 0 52 40" fill="none" xmlns="http://www.w3.org/2000/svg">
<path d="M19.6523 0.0624695C14.3508 0.336689 9.21172 0.885124 7.61719 1.35231C4.79375 2.16481 2.46797 4.37888 1.42188 7.24294C0.700781 9.22341 0 15.5101 0 19.9687C0 24.4273 0.700781 30.714 1.42188 32.6945C2.44766 35.4875 4.73281 37.7117 7.46484 38.5547C9.13047 39.0625 14.5336 39.6312 20.2109 39.8851C23.1359 40.0172 31.6672 39.9562 34.2773 39.7836C38.6953 39.4789 43.0625 38.9711 44.3422 38.5953C47.3484 37.732 49.7148 35.3961 50.6695 32.3797C51.3602 30.1656 52 24.2648 52 19.989C52 15.5101 51.2992 9.22341 50.5781 7.24294C49.5016 4.30778 47.2164 2.15466 44.3117 1.332C42.9508 0.956219 39.4062 0.529655 34.8969 0.204659C32.3984 0.021843 22.2016 -0.069561 19.6523 0.0624695ZM34.125 3.40388C38.1977 3.69841 41.8844 4.0945 43.1539 4.38903C45.2461 4.86637 47.125 6.71481 47.6836 8.85778C47.8766 9.60934 48.293 12.4937 48.5164 14.5859C48.7602 16.9422 48.7602 22.9953 48.5164 25.3515C48.293 27.464 47.8766 30.3281 47.6734 31.0898C47.4094 32.1257 46.8508 33.05 45.957 33.9336C45.0531 34.8476 44.2711 35.2945 43.1539 35.5484C41.8844 35.8429 38.1164 36.2492 34.125 36.5336C31.6062 36.7062 23.3594 36.7672 20.3125 36.6351C15.5594 36.4218 10.0547 35.8937 8.60234 35.4976C6.65234 34.9797 4.84453 33.1007 4.31641 31.0593C4.11328 30.3078 3.70703 27.4843 3.48359 25.3515C3.27031 23.2187 3.23984 17.2468 3.43281 15.1445C3.60547 13.3265 4.02187 10.239 4.21484 9.28434C4.68203 7.06013 6.26641 5.22184 8.27734 4.54137C9.54688 4.12497 14.5031 3.58669 19.6523 3.31247C21.8359 3.20075 32.1547 3.26169 34.125 3.40388Z" fill="white"/>
<path d="M20.1607 10.8788C19.6834 11.0515 19.2162 11.5593 19.1451 11.996C19.1146 12.1585 19.0943 15.8655 19.1146 20.2226L19.1451 28.1444L19.3787 28.4796C19.6935 28.9163 20.1607 29.1397 20.7295 29.1499C21.1662 29.1499 21.5013 28.9772 24.792 27.0069C26.7724 25.839 29.7177 24.0921 31.3326 23.1272C32.9576 22.1726 34.4201 21.228 34.6029 21.0351C35.1717 20.4358 35.1717 19.471 34.6029 18.9022C34.3185 18.628 31.7795 17.0944 23.2076 11.9858C22.1513 11.3562 21.1154 10.8179 20.9224 10.7874C20.7193 10.7569 20.3842 10.7976 20.1607 10.8788ZM26.5896 17.7851C28.5498 18.953 30.1646 19.9382 30.1646 19.9687C30.1646 20.0194 22.6693 24.5288 22.4256 24.6202C22.3849 24.6405 22.3443 22.5483 22.3443 19.9788V15.2968L22.6896 15.4694C22.8724 15.571 24.6295 16.6069 26.5896 17.7851Z" fill="white"/>
</svg>
