<svg width="40" height="40" viewBox="0 0 40 40" fill="none" xmlns="http://www.w3.org/2000/svg">
<path d="M18.4518 0.0231705C13.0148 0.531704 8.25936 2.92573 4.83578 6.8923C2.29747 9.82616 0.730607 13.2294 0.150869 17.0708C-0.0449884 18.3774 -0.0528227 21.1704 0.143035 22.43C0.472075 24.5737 1.06748 26.4905 1.99976 28.4072L2.39931 29.2209L1.21633 34.5957C0.566086 37.553 0.0411888 39.9862 0.0568574 39.994C0.0725259 40.0097 0.221378 39.994 0.393732 39.9549C0.566086 39.9158 3.01822 39.3525 5.83857 38.7109L10.97 37.5452L11.7143 37.8816C13.6964 38.7735 15.843 39.3525 17.9661 39.5715C19.2822 39.7045 22.0869 39.6263 23.2542 39.4151C26.8266 38.7813 29.882 37.4122 32.6318 35.2138C33.4858 34.5253 34.9508 33.0623 35.6402 32.2095C38.014 29.2444 39.5182 25.6533 39.9177 22.0075C40.0274 20.9983 40.0274 18.6903 39.9177 17.6967C39.2518 11.7116 35.7969 6.28988 30.5244 2.9492C28.417 1.61919 25.5732 0.594296 22.839 0.171818C22.0399 0.0544662 19.2039 -0.0472412 18.4518 0.0231705ZM21.6325 3.19173C25.3146 3.55162 28.7695 5.09287 31.4175 7.55731C34.3554 10.2956 36.1964 13.7536 36.7449 17.595C36.9094 18.7842 36.9094 20.9279 36.7449 22.0858C36.2983 25.1291 35.037 28.0082 33.1254 30.3475C32.5457 31.0438 31.2843 32.2956 30.5949 32.8432C28.2368 34.7287 25.2363 36.004 22.2279 36.3951C21.2016 36.5281 18.8983 36.5516 18.0052 36.4343C16.0466 36.1683 14.2448 35.6284 12.5134 34.7913L11.3931 34.2436L7.78147 35.0651C5.79156 35.5189 4.16203 35.8788 4.15419 35.871C4.14636 35.8553 4.48323 34.2984 4.90628 32.4051C5.32934 30.5118 5.67405 28.8845 5.67405 28.7906C5.68188 28.6967 5.55653 28.3994 5.39985 28.1334C3.60579 25.0744 2.80669 21.4051 3.20624 17.9862C4.26387 8.89515 12.482 2.29984 21.6325 3.19173Z" fill="white"/>
<path d="M12.9832 11.2498C12.5758 11.4532 11.9334 12.1495 11.5339 12.8223C10.7113 14.1993 10.6408 15.9752 11.3302 17.7277C12.1684 19.8401 14.6989 23.0634 16.963 24.902C18.7101 26.3259 20.7862 27.3273 23.3871 28.0001C24.5388 28.3053 25.7139 28.3287 26.5209 28.0705C27.461 27.7733 28.6126 26.9518 28.9808 26.3181C29.3725 25.6374 29.5919 24.104 29.3412 23.7989C29.2237 23.658 25.9881 22.0464 25.3927 21.8351C24.7895 21.6161 24.7033 21.6552 24.0687 22.4454C22.7447 24.1118 22.6194 24.2213 22.1493 24.0649C21.7733 23.9475 20.4023 23.2669 19.9009 22.9539C18.381 22.0151 16.7985 20.3878 15.8271 18.7761C15.4275 18.1111 15.451 18.0094 16.1483 17.2661C16.5086 16.8828 16.822 16.4525 16.9474 16.1865L17.1432 15.7484L16.9865 15.3102C16.9004 15.0755 16.5321 14.1602 16.1718 13.2839C15.6782 12.0869 15.4432 11.6097 15.2317 11.3828L14.9496 11.0855H14.1349C13.4611 11.0855 13.2574 11.1168 12.9832 11.2498Z" fill="white"/>
</svg>
