<svg width="81" height="85" viewBox="0 0 81 85" fill="none" xmlns="http://www.w3.org/2000/svg">
<path d="M16.6572 0.682966C15.5324 1.00164 14.5764 1.6015 13.8266 2.44506C12.4956 3.96346 12.3269 5.2944 13.0018 8.59364C14.6514 16.6355 18.4005 23.9089 23.1807 28.3891C24.6241 29.7388 24.9053 30.5823 24.9053 33.5441C24.9053 35.4937 24.9428 35.6999 25.3364 36.1685C25.955 36.8809 26.8548 36.8621 27.4922 36.1498C27.9421 35.6249 27.9421 35.5499 27.8671 32.888C27.8109 30.2637 27.7734 30.0949 27.1922 28.8577C26.7423 27.8829 26.1425 27.1144 24.8303 25.7647C21.9247 22.7466 20.1064 20.0473 18.4942 16.2231C16.7509 12.0991 15.3637 6.64409 15.7199 5.2944C16.1135 3.86973 17.6319 3.1574 19.0566 3.71977C20.1251 4.15092 20.5 4.86325 20.7812 6.98152C21.0624 9.08103 21.6998 11.593 22.4871 13.5425C23.7993 16.8605 26.4049 20.3659 28.2607 21.3407C29.348 21.9031 41.6264 24.6212 43.0698 24.6212C43.5572 24.6212 46.0317 24.3213 48.5436 23.9651C53.5112 23.2528 53.9611 23.0841 53.9611 21.9781C53.9611 21.6969 53.0238 18.885 51.8991 15.7545C50.7556 12.6052 49.837 9.79337 49.837 9.47469C49.837 9.13727 50.0245 8.66863 50.3244 8.3312C50.7368 7.84382 50.943 7.75009 51.6366 7.75009C52.2552 7.75009 52.5926 7.86256 52.8926 8.16249C53.3237 8.59364 58.9474 23.3465 59.1536 24.5462C59.2849 25.296 58.7975 26.2146 58.1226 26.5708C57.8227 26.7207 55.1796 27.1331 51.9928 27.508C47.7188 28.0329 46.1816 28.2954 45.5818 28.5765C44.5695 29.0639 43.4073 30.3761 43.1073 31.3696C42.9574 31.8945 42.8449 34.7251 42.7699 40.6113L42.6762 49.0843L43.7447 54.0519C44.3258 56.7888 44.9444 59.2445 45.0756 59.5257C45.3943 60.1255 46.1254 60.3692 46.819 60.1068C47.0814 60.013 49.3871 58.6071 51.9178 56.9762C54.7297 55.1954 56.7917 53.9957 57.1853 53.9207C58.5725 53.7145 59.9597 54.933 59.9597 56.3764C59.9597 57.5574 59.5098 58.101 57.5228 59.3944C55.4982 60.7066 54.9733 61.2878 55.1608 62.0188C55.3295 62.6562 56.0044 63.2373 56.6042 63.2373C57.2791 63.2373 60.8033 60.9128 61.6843 59.8631C62.9215 58.4384 63.2777 56.3951 62.6403 54.5018C62.1904 53.1709 60.5408 51.5587 59.2099 51.1651C56.9229 50.4902 56.0419 50.7902 51.2242 53.8645C49.1059 55.2142 47.3439 56.3014 47.3251 56.2639C47.2876 56.2264 46.9127 54.5206 46.4628 52.4585L45.6567 48.7094L45.7692 40.5175C45.9004 31.3696 45.8629 31.5384 47.1939 31.1822C47.5688 31.0885 50.2869 30.7135 53.23 30.3761C59.2286 29.645 59.5848 29.5513 60.8782 28.0704C61.8155 27.0019 62.3029 25.5397 62.1529 24.2463C62.0967 23.7776 60.672 19.7098 59.0037 15.2296L55.9669 7.09399L55.0108 6.15671C52.6301 3.79475 48.806 4.4321 47.3251 7.41267C46.4253 9.19351 46.594 10.0746 49.0872 16.8043C49.837 18.8475 50.4181 20.5534 50.3619 20.5909C50.2494 20.7221 43.8197 21.6219 43.0323 21.6219C42.2825 21.6219 30.1541 18.9225 29.6104 18.6413C29.1605 18.3976 27.7171 16.8043 27.0235 15.8107C25.5051 13.58 24.3616 10.5057 23.8743 7.2627C23.4431 4.46959 23.1244 3.40109 22.4121 2.46381C21.2311 0.907914 18.6442 0.120596 16.6572 0.682966Z" fill="#194E1B"/>
<path d="M34.2397 1.92166C32.7587 2.40904 31.6902 3.06514 30.678 4.15239C29.0471 5.89574 28.391 7.8078 28.5035 10.4697C28.5597 12.0068 28.6534 12.363 29.2533 13.5815C30.378 15.8684 32.1026 17.3494 34.4459 18.0617C38.4387 19.2989 42.6377 17.4431 44.531 13.619C45.1121 12.438 45.2246 11.9881 45.2996 10.6759C45.4871 7.22669 44.2124 4.5648 41.5692 2.85894C39.5634 1.58423 36.5266 1.19058 34.2397 1.92166ZM39.2822 5.05219C40.3507 5.55832 41.1756 6.40188 41.8129 7.62034C42.4315 8.74509 42.4315 11.257 41.8129 12.3817C41.288 13.394 40.2945 14.3875 39.2822 14.9124C38.1575 15.5123 35.6456 15.531 34.5396 14.9312C33.3586 14.2938 32.7213 13.6939 32.1214 12.588C31.6153 11.7069 31.559 11.4257 31.559 10.001C31.559 8.63261 31.634 8.27644 32.0652 7.45163C33.4898 4.75226 36.5079 3.73999 39.2822 5.05219Z" fill="#194E1B"/>
<path d="M71.7495 5.16396C71.2059 6.17623 70.9435 6.43867 69.9874 6.9448C69.3688 7.26348 68.8439 7.6009 68.8252 7.69463C68.7877 7.76961 69.2938 8.12578 69.9499 8.4632C71.0184 9.00682 71.2059 9.19428 71.787 10.2815C72.1432 10.9564 72.4619 11.5 72.5181 11.5C72.5743 11.5 72.9118 10.9564 73.2679 10.3003C73.8303 9.23177 74.0552 9.02557 75.0863 8.4632C75.7424 8.12578 76.2672 7.78836 76.2672 7.71337C76.2672 7.65714 75.7424 7.30097 75.105 6.96355C74.0927 6.41992 73.8303 6.15748 73.3242 5.2202C73.0055 4.60159 72.6681 4.07671 72.5743 4.05796C72.4806 4.02047 72.1057 4.52661 71.7495 5.16396Z" fill="#194E1B"/>
<path d="M3.15862 8.20045C2.85869 8.78156 2.44629 9.19397 1.90266 9.47515C1.04036 9.94379 1.05911 10.1687 2.05263 10.5624C2.4088 10.7124 2.8212 11.1435 3.15862 11.7434L3.6835 12.6807L4.15214 11.7434C4.50831 11.0498 4.80824 10.7311 5.38936 10.4687C5.82051 10.2812 6.15793 10.0563 6.15793 9.98129C6.15793 9.88756 5.82051 9.64386 5.38936 9.43766C4.97695 9.21271 4.48957 8.78156 4.32086 8.48163C3.66476 7.30065 3.66476 7.30065 3.15862 8.20045Z" fill="#194E1B"/>
<path d="M74.224 20.2358C73.8491 20.7044 73.8304 20.9668 73.8304 24.9034V29.065L72.5369 28.9713C71.6371 28.915 70.981 28.9713 70.3249 29.1962C67.6256 30.096 66.3696 32.9828 67.6068 35.4198C68.4129 36.9944 69.9125 37.8192 71.9558 37.8005C74.0553 37.8005 75.4613 37.0319 76.3236 35.4198C76.7172 34.6887 76.736 34.3888 76.7922 29.4399L76.8484 24.2286L77.6358 24.8659C79.0979 26.0469 79.6415 26.1781 80.4664 25.5408C80.8413 25.2409 80.9537 24.9972 80.9537 24.4535C80.9537 23.6287 80.935 23.61 78.0482 21.3605C76.3236 20.0108 75.8737 19.7484 75.2925 19.7484C74.7677 19.7484 74.5052 19.8609 74.224 20.2358ZM73.0618 32.2143C73.9803 32.6829 74.1116 33.6764 73.343 34.3888C72.9681 34.7449 72.6682 34.8387 71.9183 34.8387C71.131 34.8387 70.9248 34.7637 70.5311 34.3138C69.9125 33.6014 69.95 33.0016 70.6624 32.4205C71.3185 31.8581 72.237 31.7831 73.0618 32.2143Z" fill="#194E1B"/>
<path d="M7.62061 37.0695C7.02074 37.5194 6.90827 38.288 6.90827 42.337V46.3674L6.42088 46.1799C4.54631 45.4676 1.69697 46.7048 0.684703 48.6918C-0.158853 50.3227 0.34728 52.6659 1.80944 53.8656C4.00269 55.684 7.80806 55.1591 9.25148 52.8346L9.81385 51.9348L9.87009 46.7048C9.90758 43.8367 9.98256 41.4935 10.0575 41.4935C10.1325 41.4935 10.6199 41.8309 11.126 42.2433C12.2508 43.1431 13.0569 43.2368 13.7504 42.5245C14.2941 41.9996 14.3503 41.381 13.9192 40.7811C13.7692 40.5562 12.607 39.5627 11.351 38.5879C8.97029 36.7508 8.37043 36.4884 7.62061 37.0695ZM5.95224 49.198C6.62708 49.4416 6.90827 49.854 6.90827 50.6601C6.90827 52.2535 3.92771 52.4972 3.34659 50.9413C3.1029 50.3227 3.40283 49.6478 4.04018 49.2917C4.67753 48.9543 5.16492 48.9168 5.95224 49.198Z" fill="#194E1B"/>
<path d="M25.4479 40.1622C25.0167 40.5184 24.998 40.6121 24.8855 44.2488C24.8105 47.1731 24.7168 48.1104 24.4544 48.6728C24.0232 49.6663 22.8985 54.0715 22.561 56.171C21.0426 65.4689 22.6173 74.0919 27.0225 80.8404C28.7846 83.521 29.9281 84.2708 32.4025 84.3083C33.5835 84.3271 33.9772 84.2333 34.877 83.8022C36.0392 83.2398 37.0327 82.2463 37.6888 81.0091C38.0262 80.353 38.12 79.9031 38.12 78.6096V77.0162L36.4891 73.7358C33.9584 68.6557 33.1149 65.5439 33.1149 61.1761C33.1149 58.0081 33.696 54.9901 34.4833 53.9778C34.9332 53.3967 35.9267 53.303 36.3954 53.8091C36.5828 54.034 37.014 56.0398 37.6513 59.8639C38.3074 63.7256 38.7573 65.9001 39.0572 66.5374C39.6196 67.7934 40.7818 68.9556 42.1315 69.593C43.5375 70.2491 45.7307 70.2865 47.0804 69.6679C48.3738 69.0681 52.6291 66.2562 52.8353 65.8438C53.3414 64.9065 52.6104 63.6131 51.5794 63.6131C51.2419 63.6131 50.2109 64.1755 48.655 65.2065C47.3241 66.0688 45.9369 66.8936 45.5245 67.0061C44.2123 67.3997 42.6377 66.7624 41.9253 65.5626C41.7004 65.169 41.2505 63.0132 40.6319 59.4703C40.1257 56.4335 39.6009 53.6404 39.4884 53.2655C38.6636 50.4911 34.9519 49.5726 32.6087 51.5409C31.8027 52.2157 31.334 53.2092 30.7904 55.3087C29.2158 61.5698 30.1718 67.9808 33.7522 75.0292C34.8582 77.2037 35.2144 78.0848 35.2144 78.6471C35.2144 80.7654 32.59 82.1338 30.9029 80.8966C29.9093 80.1655 28.016 76.9225 26.8913 73.9794C26.029 71.73 25.3354 68.5245 25.0917 65.5439C24.6793 60.7825 25.5416 54.5402 27.2662 49.7413C27.7348 48.4291 27.7723 48.0729 27.8661 44.5487L27.941 40.7621L27.4537 40.2935C26.8913 39.7123 26.0665 39.6561 25.4479 40.1622Z" fill="#194E1B"/>
<path d="M68.8061 59.9395C68.5062 60.5019 68.0938 60.8955 67.5127 61.233L66.6504 61.7016L67.5314 62.2077C68.15 62.5639 68.5437 62.9763 68.8436 63.5762L69.2748 64.4385L69.6684 63.6699C70.0809 62.8826 70.7744 62.2077 71.4118 62.0203C71.9554 61.8516 71.8429 61.5891 71.0369 61.1955C70.587 60.9518 70.1183 60.5019 69.8184 59.9583C69.5372 59.4896 69.2935 59.1147 69.2748 59.1147C69.256 59.1147 69.0498 59.4896 68.8061 59.9395Z" fill="#194E1B"/>
<path d="M14.3126 71.5051C14.0501 72.0675 13.7127 72.4236 13.0379 72.7985L12.1006 73.3234L12.8879 73.7358C13.394 73.9795 13.8627 74.4294 14.1814 74.9543C14.4625 75.4229 14.725 75.7979 14.7812 75.7979C14.8375 75.7979 15.0624 75.4417 15.3061 74.9918C15.6248 74.3919 15.9809 74.0545 16.5995 73.7546L17.4619 73.3422L16.5433 72.7985C15.8497 72.4236 15.5123 72.0675 15.2499 71.5051C15.0624 71.0739 14.8562 70.7365 14.7812 70.7365C14.7062 70.7365 14.5 71.0739 14.3126 71.5051Z" fill="#194E1B"/>
</svg>
