<svg width="18" height="22" viewBox="0 0 18 22" fill="none" xmlns="http://www.w3.org/2000/svg">
<path d="M7.98307 0.0336342C3.96725 0.507509 0.814647 3.33547 0.128365 7.0857C-0.525747 10.6576 1.324 14.6932 5.58645 19.0039C6.34779 19.7733 7.49517 20.7975 8.37447 21.5006L9.00177 22L9.28057 21.7809C10.5888 20.7618 12.4064 19.0803 13.4143 17.9593C16.5777 14.4333 18.1165 11.1824 17.9931 8.25765C17.8966 5.99018 17.0281 4.09978 15.3552 2.49472C14.0363 1.22596 12.401 0.415791 10.5298 0.104971C9.94541 0.00306129 8.53532 -0.0326061 7.98307 0.0336342ZM10.0205 4.57875C10.5566 4.72142 10.9212 4.86919 11.3233 5.12396C13.6074 6.54049 13.9505 9.58755 12.0311 11.4168C10.1063 13.241 6.90003 12.9149 5.40952 10.7442C4.93234 10.0512 4.73932 9.4245 4.73932 8.53789C4.73932 7.65129 4.93234 7.02455 5.40416 6.33667C6.04218 5.40931 7.03407 4.76728 8.19754 4.53289C8.62646 4.44627 9.60227 4.47175 10.0205 4.57875Z" fill="white"/>
</svg>
